<?xml version="1.0" standalone="no"?><!DOCTYPE svg PUBLIC "-//W3C//DTD SVG 1.1//EN"
        "http://www.w3.org/Graphics/SVG/1.1/DTD/svg11.dtd">
<svg t="1589700511311" class="icon" viewBox="0 0 1024 1024" version="1.1" xmlns="http://www.w3.org/2000/svg" p-id="2894" width="300" height="300"><path d="M268.726857 458.752c-58.733714 0-106.569143 47.835429-106.569143 106.569143s47.835429 106.569143 106.569143 106.569143S375.222857 624.054857 375.222857 565.321143s-47.762286-106.569143-106.496-106.569143zM253.586286 565.394286a15.140571 15.140571 0 0 1 30.208 0c0 16.603429-30.208 16.603429-30.208 0zM755.273143 458.752c-58.806857 0-106.569143 47.835429-106.569143 106.569143s47.762286 106.569143 106.569143 106.569143c58.733714 0 106.496-47.835429 106.496-106.569143s-47.762286-106.569143-106.496-106.569143zM740.205714 565.394286a15.140571 15.140571 0 0 1 30.208 0c0 16.676571-30.281143 16.457143-30.208 0zM532.260571 458.752h-40.521142a45.714286 45.714286 0 0 0-5.12 91.209143V626.102857a45.714286 45.714286 0 0 0 91.428571 0V504.466286a45.714286 45.714286 0 0 0-45.787429-45.714286z" fill="#ffffff" p-id="2895"></path><path d="M695.734857 322.048a363.081143 363.081143 0 0 0-320.219428-190.610286A365.129143 365.129143 0 0 0 10.752 496.128a365.056 365.056 0 0 0 364.763429 364.690286c39.131429 0 117.906286 0.365714 193.828571 0.877714 70.948571 0.365714 139.702857 0.804571 171.52 0.804571a272.676571 272.676571 0 0 0 272.384-272.384c0-165.010286-147.017143-299.739429-317.513143-268.068571z m45.129143 449.024c-31.817143 0-100.205714-0.438857-171.008-0.731429-76.141714-0.585143-155.062857-0.950857-194.340571-0.950857a273.554286 273.554286 0 0 1-273.334858-273.261714 273.554286 273.554286 0 0 1 273.334858-273.261714c111.323429 0 210.505143 66.779429 252.781714 170.130285 8.996571 22.162286 33.645714 33.718857 56.466286 26.112 20.48-6.656 38.765714-9.947429 56.100571-9.947428 99.766857 0 180.955429 81.188571 180.955429 180.955428s-81.188571 180.955429-180.955429 180.955429z" fill="#ffffff" p-id="2896"></path></svg>